<?xml version="1.0" standalone="no"?>
<!DOCTYPE svg PUBLIC "-//W3C//DTD SVG 20010904//EN"
 "http://www.w3.org/TR/2001/REC-SVG-20010904/DTD/svg10.dtd">
<svg version="1.0" xmlns="http://www.w3.org/2000/svg"
 width="453.000000pt" height="299.000000pt" viewBox="0 0 453.000000 299.000000"
 preserveAspectRatio="xMidYMid meet">

<g transform="translate(0.000000,299.000000) scale(0.100000,-0.100000)"
fill="#000000" stroke="none">
<path d="M531 2948 c-5 -13 -14 -63 -21 -113 -15 -120 -76 -518 -110 -720 -49
-289 -71 -422 -94 -565 -14 -85 -35 -204 -46 -265 -26 -146 -128 -644 -134
-654 -8 -12 -84 -403 -98 -499 -10 -71 -10 -85 2 -93 10 -6 189 -9 483 -7 376
2 469 6 476 16 4 8 11 61 15 119 9 138 44 382 105 728 27 154 63 361 80 460
17 99 36 191 41 205 5 14 18 90 30 170 31 220 38 250 65 292 26 39 59 54 95
43 45 -14 64 -78 80 -270 11 -122 24 -244 39 -350 5 -38 14 -106 20 -150 6
-44 16 -114 22 -155 21 -145 26 -215 17 -233 -17 -34 -70 -47 -192 -47 -66 0
-117 -4 -121 -10 -6 -10 -14 -73 -35 -280 -26 -260 -39 -401 -43 -461 l-5 -67
46 -6 c60 -8 1290 -8 1415 1 114 7 110 -3 72 149 -14 56 -32 140 -40 188 -8
47 -22 125 -30 174 -29 161 -104 616 -125 757 -11 77 -25 172 -31 210 -6 39
-15 88 -20 110 -21 85 -153 863 -205 1205 -9 63 -22 121 -27 128 -7 9 -192 12
-863 12 l-854 0 -9 -22z"/>
<path d="M2444 2948 c-4 -6 12 -113 46 -308 5 -30 19 -113 30 -185 11 -71 25
-155 30 -185 5 -30 19 -113 30 -185 12 -71 32 -184 45 -250 24 -120 46 -260
85 -520 24 -161 41 -265 69 -420 11 -60 27 -150 36 -200 9 -49 31 -171 50
-270 56 -290 65 -339 65 -361 0 -21 6 -22 143 -29 78 -3 429 -5 780 -3 553 3
639 5 648 18 6 9 8 51 4 105 -3 50 -8 219 -11 377 -5 200 -10 293 -19 304 -11
15 -31 16 -251 4 -131 -7 -388 -15 -570 -17 -322 -5 -332 -4 -381 17 -108 46
-151 136 -101 210 59 87 163 99 737 81 507 -15 553 -15 568 5 13 18 18 581 5
601 -6 9 -161 13 -627 15 l-620 3 -47 28 c-58 33 -68 51 -68 114 0 59 17 86
73 115 89 45 147 50 731 53 437 3 551 7 558 17 5 7 6 33 4 58 -23 200 -25 263
-15 434 17 268 17 265 23 311 13 82 103 76 -1036 73 -555 -2 -1012 -6 -1014
-10z"/>
</g>
</svg>
